<?xml version="1.0" standalone="no"?>
<svg xmlns:xlink="http://www.w3.org/1999/xlink" id="wave" style="transform:rotate(180deg); transition: 0.3s" viewBox="0 0 1440 490" version="1.1" xmlns="http://www.w3.org/2000/svg"><defs><linearGradient id="sw-gradient-0" x1="0" x2="0" y1="1" y2="0"><stop stop-color="rgba(243, 106, 62, 1)" offset="0%"/><stop stop-color="rgba(255, 179, 11, 1)" offset="100%"/></linearGradient></defs><path style="transform:translate(0, 0px); opacity:1" fill="url(#sw-gradient-0)" d="M0,196L40,179.7C80,163,160,131,240,98C320,65,400,33,480,65.3C560,98,640,196,720,228.7C800,261,880,229,960,245C1040,261,1120,327,1200,351.2C1280,376,1360,359,1440,310.3C1520,261,1600,180,1680,179.7C1760,180,1840,261,1920,285.8C2000,310,2080,278,2160,236.8C2240,196,2320,147,2400,106.2C2480,65,2560,33,2640,65.3C2720,98,2800,196,2880,228.7C2960,261,3040,229,3120,228.7C3200,229,3280,261,3360,261.3C3440,261,3520,229,3600,204.2C3680,180,3760,163,3840,130.7C3920,98,4000,49,4080,73.5C4160,98,4240,196,4320,228.7C4400,261,4480,229,4560,212.3C4640,196,4720,196,4800,187.8C4880,180,4960,163,5040,204.2C5120,245,5200,343,5280,392C5360,441,5440,441,5520,375.7C5600,310,5680,180,5720,114.3L5760,49L5760,490L5720,490C5680,490,5600,490,5520,490C5440,490,5360,490,5280,490C5200,490,5120,490,5040,490C4960,490,4880,490,4800,490C4720,490,4640,490,4560,490C4480,490,4400,490,4320,490C4240,490,4160,490,4080,490C4000,490,3920,490,3840,490C3760,490,3680,490,3600,490C3520,490,3440,490,3360,490C3280,490,3200,490,3120,490C3040,490,2960,490,2880,490C2800,490,2720,490,2640,490C2560,490,2480,490,2400,490C2320,490,2240,490,2160,490C2080,490,2000,490,1920,490C1840,490,1760,490,1680,490C1600,490,1520,490,1440,490C1360,490,1280,490,1200,490C1120,490,1040,490,960,490C880,490,800,490,720,490C640,490,560,490,480,490C400,490,320,490,240,490C160,490,80,490,40,490L0,490Z"/><defs><linearGradient id="sw-gradient-1" x1="0" x2="0" y1="1" y2="0"><stop stop-color="rgba(243, 106, 62, 1)" offset="0%"/><stop stop-color="rgba(255, 179, 11, 1)" offset="100%"/></linearGradient></defs><path style="transform:translate(0, 50px); opacity:0.9" fill="url(#sw-gradient-1)" d="M0,98L40,130.7C80,163,160,229,240,220.5C320,212,400,131,480,106.2C560,82,640,114,720,147C800,180,880,212,960,253.2C1040,294,1120,343,1200,326.7C1280,310,1360,229,1440,171.5C1520,114,1600,82,1680,114.3C1760,147,1840,245,1920,285.8C2000,327,2080,310,2160,285.8C2240,261,2320,229,2400,179.7C2480,131,2560,65,2640,65.3C2720,65,2800,131,2880,196C2960,261,3040,327,3120,326.7C3200,327,3280,261,3360,196C3440,131,3520,65,3600,32.7C3680,0,3760,0,3840,24.5C3920,49,4000,98,4080,155.2C4160,212,4240,278,4320,261.3C4400,245,4480,147,4560,106.2C4640,65,4720,82,4800,147C4880,212,4960,327,5040,310.3C5120,294,5200,147,5280,114.3C5360,82,5440,163,5520,179.7C5600,196,5680,147,5720,122.5L5760,98L5760,490L5720,490C5680,490,5600,490,5520,490C5440,490,5360,490,5280,490C5200,490,5120,490,5040,490C4960,490,4880,490,4800,490C4720,490,4640,490,4560,490C4480,490,4400,490,4320,490C4240,490,4160,490,4080,490C4000,490,3920,490,3840,490C3760,490,3680,490,3600,490C3520,490,3440,490,3360,490C3280,490,3200,490,3120,490C3040,490,2960,490,2880,490C2800,490,2720,490,2640,490C2560,490,2480,490,2400,490C2320,490,2240,490,2160,490C2080,490,2000,490,1920,490C1840,490,1760,490,1680,490C1600,490,1520,490,1440,490C1360,490,1280,490,1200,490C1120,490,1040,490,960,490C880,490,800,490,720,490C640,490,560,490,480,490C400,490,320,490,240,490C160,490,80,490,40,490L0,490Z"/><defs><linearGradient id="sw-gradient-2" x1="0" x2="0" y1="1" y2="0"><stop stop-color="rgba(243, 106, 62, 1)" offset="0%"/><stop stop-color="rgba(255, 179, 11, 1)" offset="100%"/></linearGradient></defs><path style="transform:translate(0, 100px); opacity:0.8" fill="url(#sw-gradient-2)" d="M0,245L40,220.5C80,196,160,147,240,179.7C320,212,400,327,480,326.7C560,327,640,212,720,179.7C800,147,880,196,960,196C1040,196,1120,147,1200,171.5C1280,196,1360,294,1440,351.2C1520,408,1600,425,1680,424.7C1760,425,1840,408,1920,359.3C2000,310,2080,229,2160,228.7C2240,229,2320,310,2400,334.8C2480,359,2560,327,2640,294C2720,261,2800,229,2880,179.7C2960,131,3040,65,3120,32.7C3200,0,3280,0,3360,40.8C3440,82,3520,163,3600,163.3C3680,163,3760,82,3840,81.7C3920,82,4000,163,4080,228.7C4160,294,4240,343,4320,310.3C4400,278,4480,163,4560,155.2C4640,147,4720,245,4800,310.3C4880,376,4960,408,5040,392C5120,376,5200,310,5280,245C5360,180,5440,114,5520,106.2C5600,98,5680,147,5720,171.5L5760,196L5760,490L5720,490C5680,490,5600,490,5520,490C5440,490,5360,490,5280,490C5200,490,5120,490,5040,490C4960,490,4880,490,4800,490C4720,490,4640,490,4560,490C4480,490,4400,490,4320,490C4240,490,4160,490,4080,490C4000,490,3920,490,3840,490C3760,490,3680,490,3600,490C3520,490,3440,490,3360,490C3280,490,3200,490,3120,490C3040,490,2960,490,2880,490C2800,490,2720,490,2640,490C2560,490,2480,490,2400,490C2320,490,2240,490,2160,490C2080,490,2000,490,1920,490C1840,490,1760,490,1680,490C1600,490,1520,490,1440,490C1360,490,1280,490,1200,490C1120,490,1040,490,960,490C880,490,800,490,720,490C640,490,560,490,480,490C400,490,320,490,240,490C160,490,80,490,40,490L0,490Z"/></svg>